<svg version="1.1" id="Layer_1" xmlns="http://www.w3.org/2000/svg" xmlns:xlink="http://www.w3.org/1999/xlink" x="0px" y="0px"
	 width="100%" viewBox="0 0 2752 1536" enable-background="new 0 0 2752 1536" xml:space="preserve">
<path fill="#FEFEFE" opacity="1.000000" stroke="none" 
	d="
M769.326111,564.852844 
	C713.946838,566.698547 662.389648,581.848938 614.775085,610.029358 
	C558.156494,643.538757 515.388000,689.666870 488.571808,750.143860 
	C473.053986,785.140259 465.475128,821.560791 468.138641,859.897583 
	C468.904999,870.927917 471.173889,881.638000 475.920197,891.722656 
	C485.081818,911.188782 500.923187,921.442139 522.251648,919.488708 
	C533.694519,918.440796 545.456055,915.933044 556.064514,911.608276 
	C593.138672,896.494080 621.916016,870.603577 645.710754,838.908264 
	C651.187744,831.612732 654.563354,823.331482 654.000488,813.815735 
	C653.785156,810.176514 654.136108,806.485291 654.446472,802.836182 
	C660.639099,730.040405 689.876099,669.595520 750.332520,626.466980 
	C786.502197,600.664246 827.209045,589.111938 871.661560,590.987976 
	C873.658447,591.072266 875.662048,590.998779 877.662476,590.998779 
	C844.634766,570.626709 808.663330,564.621399 769.326111,564.852844 
M938.709290,793.890320 
	C949.186279,768.086487 954.148010,741.370361 952.121887,713.345825 
	C950.108276,715.188965 948.908997,717.345276 947.557068,719.401245 
	C941.719666,728.278137 936.525146,737.684387 929.855652,745.889282 
	C896.983765,786.328735 853.100952,809.894653 804.553162,825.754456 
	C768.103699,837.661926 730.572205,842.564331 692.284485,839.779175 
	C677.110535,838.675293 666.601746,843.782898 657.744324,856.469604 
	C641.210327,880.151794 620.016846,899.457520 595.697632,915.090576 
	C586.480042,921.015747 576.517639,925.769287 567.129456,931.445129 
	C553.532654,939.665344 553.025024,952.376343 566.607727,960.349792 
	C574.199463,964.806274 582.911560,968.002197 591.529175,969.952026 
	C630.402283,978.747314 669.504456,978.230774 708.538208,970.845947 
	C764.655884,960.228821 814.504578,936.077026 858.504272,899.921082 
	C893.237061,871.379883 920.721375,837.126831 938.709290,793.890320 
M2166.612793,819.912903 
	C2171.916504,804.680115 2177.220459,789.447327 2183.249268,772.132385 
	C2196.046143,807.158203 2208.099365,840.148499 2220.102539,873.001587 
	C2233.222168,873.001587 2245.433350,873.001587 2258.006592,873.001587 
	C2275.504883,823.018921 2292.903320,773.321472 2310.434570,723.244934 
	C2298.076416,723.244934 2286.903564,723.244934 2275.221191,723.244934 
	C2263.251953,758.316162 2251.413818,793.003357 2238.837891,829.851807 
	C2225.572266,792.720215 2213.096680,757.799988 2200.769287,723.294739 
	C2188.789307,723.294739 2177.931641,723.294739 2166.827393,723.294739 
	C2154.717285,758.345337 2142.762695,792.946716 2130.807861,827.548035 
	C2130.249268,827.503601 2129.690430,827.459167 2129.131836,827.414734 
	C2116.958496,792.504333 2104.784912,757.593994 2092.580322,722.594116 
	C2079.671631,723.044739 2067.897461,721.903625 2055.557861,723.310364 
	C2074.010254,774.164612 2091.989014,823.713745 2109.924316,873.143127 
	C2123.008301,873.143127 2135.257812,873.143127 2148.259521,873.143127 
	C2154.225830,855.862366 2160.173096,838.637085 2166.612793,819.912903 
M1079.751465,717.000000 
	C1079.751465,768.841309 1079.751465,820.682556 1079.751465,872.964966 
	C1093.153687,872.964966 1105.325684,872.964966 1118.486816,872.964966 
	C1118.486816,852.388062 1118.486816,832.252136 1118.486816,810.969910 
	C1124.383911,810.969910 1129.326904,811.045715 1134.266846,810.956177 
	C1151.571045,810.642578 1168.963013,811.257568 1186.158203,809.706787 
	C1216.797607,806.943481 1239.158813,788.152039 1247.281128,760.196777 
	C1256.103149,729.833496 1244.911255,697.506226 1220.357788,682.945374 
	C1205.743164,674.278381 1189.871460,669.760376 1172.840942,669.749084 
	C1144.860229,669.730530 1116.879639,669.825867 1088.899048,669.923584 
	C1086.013062,669.933655 1083.128418,670.285400 1079.748779,670.511719 
	C1079.748779,685.780457 1079.748779,700.390259 1079.751465,717.000000 
M1744.588623,840.470337 
	C1689.688843,852.156311 1646.105347,812.194458 1656.587036,755.099854 
	C1661.262573,729.632080 1677.225220,711.889893 1701.982056,703.925964 
	C1728.736938,695.319214 1753.244263,700.765320 1774.345337,719.722473 
	C1776.265503,721.447449 1777.539795,723.891296 1779.612793,726.669739 
	C1789.132935,717.596497 1797.445068,709.674622 1805.831299,701.682190 
	C1804.124878,699.616516 1803.171021,698.240967 1802.003052,697.080933 
	C1783.214233,678.420288 1760.222534,669.165771 1734.131104,667.112732 
	C1677.371460,662.646545 1626.380981,696.414062 1617.161255,753.828125 
	C1610.207275,797.132690 1629.192383,841.011414 1668.647827,863.124023 
	C1689.570923,874.850281 1712.039062,877.022644 1735.287109,876.082336 
	C1758.870972,875.128418 1779.282959,866.497070 1796.730103,850.781799 
	C1799.846313,847.974915 1802.362671,844.501892 1805.564331,840.873779 
	C1796.828369,832.700012 1788.678589,825.074707 1780.220825,817.161316 
	C1770.281982,827.823669 1759.928345,836.540283 1744.588623,840.470337 
M2040.914795,801.026733 
	C2040.648926,791.709045 2040.811523,782.355469 2040.033691,773.080750 
	C2038.012939,748.984741 2024.574829,732.137085 2001.270996,725.138123 
	C1973.678833,716.851257 1946.578125,719.744568 1920.254883,730.719604 
	C1914.558838,733.094482 1909.387329,736.727539 1903.697021,739.937378 
	C1908.906494,749.312439 1913.509033,757.595032 1918.154053,765.954285 
	C1922.852295,763.301208 1926.496582,760.946899 1930.382080,759.100220 
	C1947.797729,750.823242 1965.848145,747.546143 1984.596558,753.837769 
	C1997.367065,758.123352 2003.739014,768.566956 2002.692017,783.095276 
	C1998.853516,783.095276 1994.922363,783.037109 1990.993530,783.105774 
	C1976.677246,783.355835 1962.331787,783.171814 1948.055420,784.073242 
	C1936.308838,784.814880 1925.215942,788.516968 1915.421875,795.383667 
	C1907.143677,801.187439 1901.956665,809.106995 1899.895752,818.976746 
	C1894.312988,845.713989 1909.570435,868.635498 1937.471680,873.939636 
	C1961.980835,878.599060 1985.844727,878.186646 2005.925781,857.397583 
	C2005.925781,863.398315 2005.925781,867.890564 2005.925781,872.967896 
	C2017.714844,872.967896 2028.872192,872.967896 2040.917114,872.967896 
	C2040.917114,849.458252 2040.917114,826.238037 2040.914795,801.026733 
M1314.215088,820.172974 
	C1314.230835,813.180786 1313.763550,806.144531 1314.395508,799.208496 
	C1315.054321,791.980103 1315.898560,784.554504 1318.190674,777.728638 
	C1325.472534,756.043335 1353.448853,745.815857 1373.436035,757.124634 
	C1382.181030,762.072571 1386.853760,769.897827 1387.988892,779.716187 
	C1388.637085,785.322571 1388.811523,791.007812 1388.829102,796.658752 
	C1388.899780,819.299744 1388.802856,841.941345 1388.833496,864.582520 
	C1388.837402,867.416260 1389.233276,870.249390 1389.419067,872.706360 
	C1402.316040,872.706360 1414.118774,872.706360 1426.504639,872.706360 
	C1426.504639,867.367737 1426.514648,862.748840 1426.503052,858.130005 
	C1426.438354,832.159485 1426.746216,806.180725 1426.176270,780.221252 
	C1425.749512,760.777832 1419.320679,743.712280 1402.970581,731.605347 
	C1393.532715,724.616638 1382.628052,721.704041 1371.241211,720.933594 
	C1350.953125,719.560791 1332.125000,723.359680 1317.041504,738.451172 
	C1316.257080,739.235962 1315.133545,739.681641 1313.560913,740.664551 
	C1313.247803,734.232361 1312.980713,728.746460 1312.718018,723.347839 
	C1300.404053,723.347839 1289.235718,723.347839 1277.599854,723.347839 
	C1277.599854,773.675842 1277.599854,823.377930 1277.599854,873.061890 
	C1289.965454,873.061890 1301.570068,873.061890 1314.232056,873.061890 
	C1314.232056,855.770996 1314.232056,838.867249 1314.215088,820.172974 
M1503.002441,873.484009 
	C1538.494995,873.421448 1573.990723,873.566406 1609.938110,873.331421 
	C1609.850342,861.406738 1610.275757,850.930176 1609.552002,839.660034 
	C1573.749756,839.660034 1539.261108,839.660034 1503.862061,839.660034 
	C1503.862061,782.683594 1503.862061,726.591003 1503.862061,670.338989 
	C1490.713623,670.338989 1478.500488,670.338989 1466.334229,670.338989 
	C1466.334229,738.194336 1466.334229,805.610291 1466.334229,873.489868 
	C1478.383423,873.489868 1489.693848,873.489868 1503.002441,873.484009 
M1831.972412,741.000000 
	C1831.972412,784.835510 1831.972412,828.671082 1831.972412,872.964905 
	C1844.665649,872.964905 1856.147217,872.964905 1868.052490,872.964905 
	C1868.052490,802.696655 1868.052490,732.906433 1868.052490,662.903748 
	C1856.001099,662.903748 1844.482300,662.903748 1831.970459,662.903748 
	C1831.970459,688.598816 1831.970459,713.799377 1831.972412,741.000000 
z"/>
<path fill="#020302" opacity="1.000000" stroke="none" 
	d="
M770.278564,564.835144 
	C808.663330,564.621399 844.634766,570.626709 877.662476,590.998779 
	C875.662048,590.998779 873.658447,591.072266 871.661560,590.987976 
	C827.209045,589.111938 786.502197,600.664246 750.332520,626.466980 
	C689.876099,669.595520 660.639099,730.040405 654.446472,802.836182 
	C654.136108,806.485291 653.785156,810.176514 654.000488,813.815735 
	C654.563354,823.331482 651.187744,831.612732 645.710754,838.908264 
	C621.916016,870.603577 593.138672,896.494080 556.064514,911.608276 
	C545.456055,915.933044 533.694519,918.440796 522.251648,919.488708 
	C500.923187,921.442139 485.081818,911.188782 475.920197,891.722656 
	C471.173889,881.638000 468.904999,870.927917 468.138641,859.897583 
	C465.475128,821.560791 473.053986,785.140259 488.571808,750.143860 
	C515.388000,689.666870 558.156494,643.538757 614.775085,610.029358 
	C662.389648,581.848938 713.946838,566.698547 770.278564,564.835144 
z"/>
<path fill="#030303" opacity="1.000000" stroke="none" 
	d="
M938.450684,794.614807 
	C920.721375,837.126831 893.237061,871.379883 858.504272,899.921082 
	C814.504578,936.077026 764.655884,960.228821 708.538208,970.845947 
	C669.504456,978.230774 630.402283,978.747314 591.529175,969.952026 
	C582.911560,968.002197 574.199463,964.806274 566.607727,960.349792 
	C553.025024,952.376343 553.532654,939.665344 567.129456,931.445129 
	C576.517639,925.769287 586.480042,921.015747 595.697632,915.090576 
	C620.016846,899.457520 641.210327,880.151794 657.744324,856.469604 
	C666.601746,843.782898 677.110535,838.675293 692.284485,839.779175 
	C730.572205,842.564331 768.103699,837.661926 804.553162,825.754456 
	C853.100952,809.894653 896.983765,786.328735 929.855652,745.889282 
	C936.525146,737.684387 941.719666,728.278137 947.557068,719.401245 
	C948.908997,717.345276 950.108276,715.188965 952.121887,713.345825 
	C954.148010,741.370361 949.186279,768.086487 938.450684,794.614807 
z"/>
<path fill="#070807" opacity="1.000000" stroke="none" 
	d="
M2166.366455,820.662354 
	C2160.173096,838.637085 2154.225830,855.862366 2148.259521,873.143127 
	C2135.257812,873.143127 2123.008301,873.143127 2109.924316,873.143127 
	C2091.989014,823.713745 2074.010254,774.164612 2055.557861,723.310364 
	C2067.897461,721.903625 2079.671631,723.044739 2092.580322,722.594116 
	C2104.784912,757.593994 2116.958496,792.504333 2129.131836,827.414734 
	C2129.690430,827.459167 2130.249268,827.503601 2130.807861,827.548035 
	C2142.762695,792.946716 2154.717285,758.345337 2166.827393,723.294739 
	C2177.931641,723.294739 2188.789307,723.294739 2200.769287,723.294739 
	C2213.096680,757.799988 2225.572266,792.720215 2238.837891,829.851807 
	C2251.413818,793.003357 2263.251953,758.316162 2275.221191,723.244934 
	C2286.903564,723.244934 2298.076416,723.244934 2310.434570,723.244934 
	C2292.903320,773.321472 2275.504883,823.018921 2258.006592,873.001587 
	C2245.433350,873.001587 2233.222168,873.001587 2220.102539,873.001587 
	C2208.099365,840.148499 2196.046143,807.158203 2183.249268,772.132385 
	C2177.220459,789.447327 2171.916504,804.680115 2166.366455,820.662354 
z"/>
<path fill="#050605" opacity="1.000000" stroke="none" 
	d="
M1079.750122,716.000000 
	C1079.748779,700.390259 1079.748779,685.780457 1079.748779,670.511719 
	C1083.128418,670.285400 1086.013062,669.933655 1088.899048,669.923584 
	C1116.879639,669.825867 1144.860229,669.730530 1172.840942,669.749084 
	C1189.871460,669.760376 1205.743164,674.278381 1220.357788,682.945374 
	C1244.911255,697.506226 1256.103149,729.833496 1247.281128,760.196777 
	C1239.158813,788.152039 1216.797607,806.943481 1186.158203,809.706787 
	C1168.963013,811.257568 1151.571045,810.642578 1134.266846,810.956177 
	C1129.326904,811.045715 1124.383911,810.969910 1118.486816,810.969910 
	C1118.486816,832.252136 1118.486816,852.388062 1118.486816,872.964966 
	C1105.325684,872.964966 1093.153687,872.964966 1079.751465,872.964966 
	C1079.751465,820.682556 1079.751465,768.841309 1079.750122,716.000000 
M1118.377808,744.996094 
	C1118.377808,755.871887 1118.377808,766.747681 1118.377808,777.747375 
	C1139.337646,777.747375 1159.308594,778.984009 1179.052734,777.397278 
	C1198.530151,775.832031 1211.493164,759.903931 1211.907593,740.872986 
	C1212.330933,721.429138 1200.571899,707.122803 1180.577637,703.113770 
	C1176.378296,702.271729 1172.010254,702.002991 1167.714966,701.958008 
	C1154.083984,701.815125 1140.450439,701.867004 1126.818237,701.933777 
	C1124.279541,701.946228 1121.742798,702.376709 1118.374023,702.692078 
	C1118.374023,716.532593 1118.374023,729.765015 1118.377808,744.996094 
z"/>
<path fill="#060606" opacity="1.000000" stroke="none" 
	d="
M1745.397583,840.283447 
	C1759.928345,836.540283 1770.281982,827.823669 1780.220825,817.161316 
	C1788.678589,825.074707 1796.828369,832.700012 1805.564331,840.873779 
	C1802.362671,844.501892 1799.846313,847.974915 1796.730103,850.781799 
	C1779.282959,866.497070 1758.870972,875.128418 1735.287109,876.082336 
	C1712.039062,877.022644 1689.570923,874.850281 1668.647827,863.124023 
	C1629.192383,841.011414 1610.207275,797.132690 1617.161255,753.828125 
	C1626.380981,696.414062 1677.371460,662.646545 1734.131104,667.112732 
	C1760.222534,669.165771 1783.214233,678.420288 1802.003052,697.080933 
	C1803.171021,698.240967 1804.124878,699.616516 1805.831299,701.682190 
	C1797.445068,709.674622 1789.132935,717.596497 1779.612793,726.669739 
	C1777.539795,723.891296 1776.265503,721.447449 1774.345337,719.722473 
	C1753.244263,700.765320 1728.736938,695.319214 1701.982056,703.925964 
	C1677.225220,711.889893 1661.262573,729.632080 1656.587036,755.099854 
	C1646.105347,812.194458 1689.688843,852.156311 1745.397583,840.283447 
z"/>
<path fill="#060706" opacity="1.000000" stroke="none" 
	d="
M2040.916016,802.022278 
	C2040.917114,826.238037 2040.917114,849.458252 2040.917114,872.967896 
	C2028.872192,872.967896 2017.714844,872.967896 2005.925781,872.967896 
	C2005.925781,867.890564 2005.925781,863.398315 2005.925781,857.397583 
	C1985.844727,878.186646 1961.980835,878.599060 1937.471680,873.939636 
	C1909.570435,868.635498 1894.312988,845.713989 1899.895752,818.976746 
	C1901.956665,809.106995 1907.143677,801.187439 1915.421875,795.383667 
	C1925.215942,788.516968 1936.308838,784.814880 1948.055420,784.073242 
	C1962.331787,783.171814 1976.677246,783.355835 1990.993530,783.105774 
	C1994.922363,783.037109 1998.853516,783.095276 2002.692017,783.095276 
	C2003.739014,768.566956 1997.367065,758.123352 1984.596558,753.837769 
	C1965.848145,747.546143 1947.797729,750.823242 1930.382080,759.100220 
	C1926.496582,760.946899 1922.852295,763.301208 1918.154053,765.954285 
	C1913.509033,757.595032 1908.906494,749.312439 1903.697021,739.937378 
	C1909.387329,736.727539 1914.558838,733.094482 1920.254883,730.719604 
	C1946.578125,719.744568 1973.678833,716.851257 2001.270996,725.138123 
	C2024.574829,732.137085 2038.012939,748.984741 2040.033691,773.080750 
	C2040.811523,782.355469 2040.648926,791.709045 2040.916016,802.022278 
M2003.910156,811.512634 
	C2002.808960,810.505615 2001.719116,808.636963 2000.604858,808.622253 
	C1986.284668,808.433777 1971.958008,808.358826 1957.640381,808.634705 
	C1954.414185,808.696838 1951.089111,809.897644 1948.026611,811.118835 
	C1933.485596,816.917297 1931.258301,833.203186 1943.483643,842.956543 
	C1949.019653,847.373230 1955.521851,848.473633 1962.220337,848.854370 
	C1982.443726,850.003967 2007.324219,837.758301 2003.910156,811.512634 
z"/>
<path fill="#070807" opacity="1.000000" stroke="none" 
	d="
M1314.223633,821.068237 
	C1314.232056,838.867249 1314.232056,855.770996 1314.232056,873.061890 
	C1301.570068,873.061890 1289.965454,873.061890 1277.599854,873.061890 
	C1277.599854,823.377930 1277.599854,773.675842 1277.599854,723.347839 
	C1289.235718,723.347839 1300.404053,723.347839 1312.718018,723.347839 
	C1312.980713,728.746460 1313.247803,734.232361 1313.560913,740.664551 
	C1315.133545,739.681641 1316.257080,739.235962 1317.041504,738.451172 
	C1332.125000,723.359680 1350.953125,719.560791 1371.241211,720.933594 
	C1382.628052,721.704041 1393.532715,724.616638 1402.970581,731.605347 
	C1419.320679,743.712280 1425.749512,760.777832 1426.176270,780.221252 
	C1426.746216,806.180725 1426.438354,832.159485 1426.503052,858.130005 
	C1426.514648,862.748840 1426.504639,867.367737 1426.504639,872.706360 
	C1414.118774,872.706360 1402.316040,872.706360 1389.419067,872.706360 
	C1389.233276,870.249390 1388.837402,867.416260 1388.833496,864.582520 
	C1388.802856,841.941345 1388.899780,819.299744 1388.829102,796.658752 
	C1388.811523,791.007812 1388.637085,785.322571 1387.988892,779.716187 
	C1386.853760,769.897827 1382.181030,762.072571 1373.436035,757.124634 
	C1353.448853,745.815857 1325.472534,756.043335 1318.190674,777.728638 
	C1315.898560,784.554504 1315.054321,791.980103 1314.395508,799.208496 
	C1313.763550,806.144531 1314.230835,813.180786 1314.223633,821.068237 
z"/>
<path fill="#060606" opacity="1.000000" stroke="none" 
	d="
M1502.003418,873.486938 
	C1489.693848,873.489868 1478.383423,873.489868 1466.334229,873.489868 
	C1466.334229,805.610291 1466.334229,738.194336 1466.334229,670.338989 
	C1478.500488,670.338989 1490.713623,670.338989 1503.862061,670.338989 
	C1503.862061,726.591003 1503.862061,782.683594 1503.862061,839.660034 
	C1539.261108,839.660034 1573.749756,839.660034 1609.552002,839.660034 
	C1610.275757,850.930176 1609.850342,861.406738 1609.938110,873.331421 
	C1573.990723,873.566406 1538.494995,873.421448 1502.003418,873.486938 
z"/>
<path fill="#040505" opacity="1.000000" stroke="none" 
	d="
M1831.971436,740.000000 
	C1831.970459,713.799377 1831.970459,688.598816 1831.970459,662.903748 
	C1844.482300,662.903748 1856.001099,662.903748 1868.052490,662.903748 
	C1868.052490,732.906433 1868.052490,802.696655 1868.052490,872.964905 
	C1856.147217,872.964905 1844.665649,872.964905 1831.972412,872.964905 
	C1831.972412,828.671082 1831.972412,784.835510 1831.971436,740.000000 
z"/>
<path fill="#FAFBFA" opacity="1.000000" stroke="none" 
	d="
M1118.375977,743.996704 
	C1118.374023,729.765015 1118.374023,716.532593 1118.374023,702.692078 
	C1121.742798,702.376709 1124.279541,701.946228 1126.818237,701.933777 
	C1140.450439,701.867004 1154.083984,701.815125 1167.714966,701.958008 
	C1172.010254,702.002991 1176.378296,702.271729 1180.577637,703.113770 
	C1200.571899,707.122803 1212.330933,721.429138 1211.907593,740.872986 
	C1211.493164,759.903931 1198.530151,775.832031 1179.052734,777.397278 
	C1159.308594,778.984009 1139.337646,777.747375 1118.377808,777.747375 
	C1118.377808,766.747681 1118.377808,755.871887 1118.375977,743.996704 
z"/>
<path fill="#F8F8F7" opacity="1.000000" stroke="none" 
	d="
M2003.928955,812.405151 
	C2007.324219,837.758301 1982.443726,850.003967 1962.220337,848.854370 
	C1955.521851,848.473633 1949.019653,847.373230 1943.483643,842.956543 
	C1931.258301,833.203186 1933.485596,816.917297 1948.026611,811.118835 
	C1951.089111,809.897644 1954.414185,808.696838 1957.640381,808.634705 
	C1971.958008,808.358826 1986.284668,808.433777 2000.604858,808.622253 
	C2001.719116,808.636963 2002.808960,810.505615 2003.928955,812.405151 
z"/>
</svg>