<svg version="1.1" id="Layer_1" xmlns="http://www.w3.org/2000/svg" xmlns:xlink="http://www.w3.org/1999/xlink" x="0px" y="0px"
	 width="100%" viewBox="0 0 1024 1024" enable-background="new 0 0 1024 1024" xml:space="preserve">
<path fill="#000000" opacity="1.000000" stroke="none" 
	d="
M268.703003,730.896851 
	C251.785202,735.449768 235.160217,738.271240 218.011871,734.748901 
	C195.675797,730.160950 180.803329,716.426208 170.866714,696.606201 
	C162.434738,679.787415 159.227997,661.613708 157.783691,643.115784 
	C154.321823,598.777893 161.729370,555.735962 175.846222,513.995239 
	C204.417053,429.516876 255.377594,360.868225 325.657928,306.281158 
	C383.928528,261.022125 449.697693,231.926376 521.428650,216.122101 
	C557.907227,208.084869 594.940552,203.458435 632.407898,204.828918 
	C681.589661,206.627884 728.866821,216.305527 772.261475,240.808807 
	C773.949707,241.762085 775.987000,242.310364 777.215393,244.622070 
	C774.832275,245.936386 772.357117,245.296295 770.042480,245.122192 
	C714.446899,240.940674 661.843201,251.869843 612.857300,278.165283 
	C527.338806,324.071259 474.888428,395.890533 450.419464,489.024994 
	C443.932037,513.717712 440.122131,538.830566 439.175781,564.363708 
	C438.935333,570.851746 438.634186,577.339294 438.232452,583.819153 
	C437.547913,594.860107 432.860016,604.341187 426.422028,613.050781 
	C395.477509,654.913696 358.074066,689.441956 311.651031,713.626587 
	C298.037994,720.718445 283.914703,726.638855 268.703003,730.896851 
z"/>
<path fill="#000000" opacity="1.000000" stroke="none" 
	d="
M775.761108,676.754272 
	C704.972473,746.935974 620.917786,791.787109 523.773499,811.965393 
	C490.767120,818.821350 457.261230,821.981750 423.519653,820.998840 
	C388.988586,819.992798 354.788239,816.348267 321.755432,805.354797 
	C313.792297,802.704712 306.269836,799.143982 299.721680,793.868164 
	C287.666626,784.155273 287.383240,768.183472 299.003357,757.908569 
	C303.780518,753.684326 309.318207,750.577148 315.023773,747.802551 
	C367.481171,722.293091 410.872253,685.643066 445.040253,638.690430 
	C459.733398,618.499451 478.148621,612.808472 501.388672,614.858276 
	C523.144653,616.777100 544.938416,615.953491 566.718689,613.970337 
	C600.186829,610.922974 632.893738,604.136108 664.705383,593.589050 
	C727.790405,572.673462 785.306091,541.991394 832.717285,494.451691 
	C852.375183,474.740448 868.661926,452.484467 881.013184,427.447815 
	C881.526062,426.408295 882.128540,425.409088 882.750732,424.430115 
	C882.898560,424.197540 883.294373,424.122589 883.655579,423.933472 
	C885.303467,425.661987 885.143799,427.883057 885.233215,429.980347 
	C886.145569,451.380005 884.195496,472.521606 879.839722,493.494904 
	C868.195801,549.562073 841.839233,598.323181 806.212036,642.523743 
	C796.690491,654.336609 786.439392,665.499268 775.761108,676.754272 
z"/>
</svg>